<?xml version="1.0" encoding="UTF-8"?>
<svg id="Layer_2" data-name="Layer 2" xmlns="http://www.w3.org/2000/svg" width="115.87mm" height="29mm" viewBox="0 0 328.44 82.2">
  <defs>
    <style>
      .cls-1 {
        fill: red;
      }
    </style>
  </defs>
  <path class="cls-1" d="m0,82.2L60.13,22.06S81.44,0,124.36,0h146.05l-30.87,30.87h-117.31c-6.91,0-23.04-.05-34.36,11.27-11.76,11.02-41.6,40.05-41.6,40.05H0Z"/>
  <path class="cls-1" d="m54.8,82.2h43.07l10.37-10.45s7.14-7.29,19.34-7.29h78.35l28.58-28.63h-112.66c-16.16,0-21.49.98-32.62,12.11-10.46,10.21-34.43,34.26-34.43,34.26Z"/>
  <polygon class="cls-1" points="196.96 82.2 279.07 .09 328.44 .09 246.39 82.15 196.96 82.2"/>
</svg>